<svg xmlns="http://www.w3.org/2000/svg" xmlns:xlink="http://www.w3.org/1999/xlink" width="500" zoomAndPan="magnify" viewBox="0 0 375 374.999991" height="500" preserveAspectRatio="xMidYMid meet" version="1.0"><defs><clipPath id="id1"><path d="M 266 58 L 284.660156 58 L 284.660156 95 L 266 95 Z M 266 58 " clip-rule="nonzero"/></clipPath><clipPath id="id2"><path d="M 90.410156 22.683594 L 276 22.683594 L 276 352.683594 L 90.410156 352.683594 Z M 90.410156 22.683594 " clip-rule="nonzero"/></clipPath></defs><path fill="#ceccbe" d="M 268.664062 89.21875 L 268.664062 64.355469 C 268.664062 62.492188 270.191406 60.964844 272.050781 60.964844 L 278.828125 60.964844 C 280.6875 60.964844 282.214844 62.488281 282.214844 64.355469 L 282.214844 89.21875 C 282.214844 91.085938 280.695312 92.609375 278.828125 92.609375 L 272.050781 92.609375 C 270.1875 92.609375 268.664062 91.082031 268.664062 89.21875 Z M 268.664062 89.21875 " fill-opacity="1" fill-rule="nonzero"/><g clip-path="url(#id1)"><path fill="#1f212b" d="M 278.828125 94.871094 L 272.050781 94.871094 C 268.941406 94.871094 266.40625 92.332031 266.40625 89.21875 L 266.40625 64.355469 C 266.40625 61.242188 268.941406 58.703125 272.050781 58.703125 L 278.828125 58.703125 C 281.941406 58.703125 284.472656 61.242188 284.472656 64.355469 L 284.472656 89.21875 C 284.472656 92.332031 281.941406 94.871094 278.828125 94.871094 Z M 272.050781 63.226562 C 271.4375 63.226562 270.921875 63.742188 270.921875 64.355469 L 270.921875 89.21875 C 270.921875 89.832031 271.4375 90.347656 272.050781 90.347656 L 278.828125 90.347656 C 279.441406 90.347656 279.957031 89.832031 279.957031 89.21875 L 279.957031 64.355469 C 279.957031 63.742188 279.441406 63.226562 278.828125 63.226562 Z M 272.050781 63.226562 " fill-opacity="1" fill-rule="nonzero"/></g><path fill="#fefdef" d="M 248.339844 348.019531 L 117.34375 348.019531 C 104.921875 348.019531 94.757812 337.847656 94.757812 325.417969 L 94.757812 49.664062 C 94.757812 37.230469 104.921875 27.0625 117.34375 27.0625 L 248.339844 27.0625 C 260.761719 27.0625 270.921875 37.230469 270.921875 49.664062 L 270.921875 325.417969 C 270.921875 337.847656 260.761719 348.019531 248.339844 348.019531 Z M 248.339844 348.019531 " fill-opacity="1" fill-rule="nonzero"/><g clip-path="url(#id2)"><path fill="#1f212b" d="M 248.339844 352.539062 L 117.34375 352.539062 C 102.398438 352.539062 90.242188 340.375 90.242188 325.417969 L 90.242188 49.664062 C 90.242188 34.707031 102.398438 22.539062 117.34375 22.539062 L 248.339844 22.539062 C 263.285156 22.539062 275.441406 34.707031 275.441406 49.664062 L 275.441406 325.417969 C 275.441406 340.371094 263.28125 352.539062 248.339844 352.539062 Z M 117.34375 31.582031 C 107.378906 31.582031 99.277344 39.691406 99.277344 49.664062 L 99.277344 325.417969 C 99.277344 335.390625 107.378906 343.5 117.34375 343.5 L 248.339844 343.5 C 258.300781 343.5 266.40625 335.390625 266.40625 325.417969 L 266.40625 49.664062 C 266.40625 39.691406 258.300781 31.582031 248.339844 31.582031 Z M 117.34375 31.582031 " fill-opacity="1" fill-rule="nonzero"/></g><path fill="#c7dff1" d="M 117.34375 67.746094 L 252.855469 67.746094 L 252.855469 293.773438 L 117.34375 293.773438 Z M 117.34375 67.746094 " fill-opacity="1" fill-rule="nonzero"/><path fill="#1f212b" d="M 115.085938 207.882812 C 113.839844 207.882812 112.828125 206.871094 112.828125 205.621094 L 112.828125 65.484375 C 112.828125 64.238281 113.839844 63.226562 115.085938 63.226562 L 232.527344 63.226562 C 233.773438 63.226562 234.785156 64.238281 234.785156 65.484375 C 234.785156 66.734375 233.773438 67.746094 232.527344 67.746094 L 117.34375 67.746094 L 117.34375 205.621094 C 117.34375 206.871094 116.332031 207.882812 115.085938 207.882812 Z M 250.597656 293.773438 L 115.085938 293.773438 C 113.839844 293.773438 112.828125 292.761719 112.828125 291.511719 L 112.828125 250.828125 C 112.828125 249.582031 113.839844 248.566406 115.085938 248.566406 C 116.332031 248.566406 117.34375 249.582031 117.34375 250.828125 L 117.34375 289.253906 L 248.339844 289.253906 L 248.339844 106.171875 C 248.339844 104.921875 249.351562 103.910156 250.597656 103.910156 C 251.84375 103.910156 252.855469 104.921875 252.855469 106.171875 L 252.855469 291.511719 C 252.855469 292.761719 251.84375 293.773438 250.597656 293.773438 Z M 250.597656 293.773438 " fill-opacity="1" fill-rule="nonzero"/><path fill="#ceccbe" d="M 180.582031 305.074219 C 179.839844 305.074219 179.105469 305.148438 178.378906 305.292969 C 177.652344 305.4375 176.945312 305.652344 176.261719 305.933594 C 175.574219 306.21875 174.925781 306.566406 174.308594 306.980469 C 173.691406 307.390625 173.121094 307.859375 172.597656 308.386719 C 172.074219 308.910156 171.605469 309.480469 171.191406 310.097656 C 170.78125 310.714844 170.433594 311.367188 170.148438 312.050781 C 169.867188 312.738281 169.652344 313.445312 169.507812 314.171875 C 169.363281 314.898438 169.289062 315.632812 169.289062 316.375 C 169.289062 317.117188 169.363281 317.851562 169.507812 318.582031 C 169.652344 319.308594 169.867188 320.015625 170.148438 320.699219 C 170.433594 321.386719 170.78125 322.039062 171.191406 322.65625 C 171.605469 323.273438 172.074219 323.84375 172.597656 324.367188 C 173.121094 324.890625 173.691406 325.359375 174.308594 325.773438 C 174.925781 326.183594 175.574219 326.535156 176.261719 326.816406 C 176.945312 327.101562 177.652344 327.316406 178.378906 327.460938 C 179.105469 327.605469 179.839844 327.675781 180.582031 327.675781 C 181.324219 327.675781 182.058594 327.605469 182.785156 327.460938 C 183.511719 327.316406 184.21875 327.101562 184.902344 326.816406 C 185.589844 326.535156 186.238281 326.183594 186.855469 325.773438 C 187.472656 325.359375 188.042969 324.890625 188.566406 324.367188 C 189.089844 323.84375 189.558594 323.273438 189.972656 322.65625 C 190.382812 322.039062 190.730469 321.386719 191.015625 320.699219 C 191.300781 320.015625 191.511719 319.308594 191.65625 318.582031 C 191.800781 317.851562 191.875 317.117188 191.875 316.375 C 191.875 315.632812 191.800781 314.898438 191.65625 314.171875 C 191.511719 313.445312 191.300781 312.738281 191.015625 312.050781 C 190.730469 311.367188 190.382812 310.714844 189.972656 310.097656 C 189.558594 309.480469 189.089844 308.910156 188.566406 308.386719 C 188.042969 307.859375 187.472656 307.390625 186.855469 306.980469 C 186.238281 306.566406 185.589844 306.21875 184.902344 305.933594 C 184.21875 305.652344 183.511719 305.4375 182.785156 305.292969 C 182.058594 305.148438 181.324219 305.074219 180.582031 305.074219 Z M 180.582031 305.074219 " fill-opacity="1" fill-rule="nonzero"/><path fill="#1f212b" d="M 180.582031 329.9375 C 173.109375 329.9375 167.03125 323.851562 167.03125 316.375 C 167.03125 308.898438 173.109375 302.816406 180.582031 302.816406 C 188.054688 302.816406 194.132812 308.898438 194.132812 316.375 C 194.132812 323.851562 188.054688 329.9375 180.582031 329.9375 Z M 180.582031 307.335938 C 175.601562 307.335938 171.546875 311.390625 171.546875 316.375 C 171.546875 321.363281 175.601562 325.417969 180.582031 325.417969 C 185.566406 325.417969 189.617188 321.363281 189.617188 316.375 C 189.617188 311.390625 185.566406 307.335938 180.582031 307.335938 Z M 201.113281 49.664062 L 164.566406 49.664062 C 163.4375 49.664062 162.515625 48.742188 162.515625 47.613281 L 162.515625 47.199219 C 162.515625 46.070312 163.4375 45.148438 164.566406 45.148438 L 201.113281 45.148438 C 202.242188 45.148438 203.164062 46.070312 203.164062 47.199219 L 203.164062 47.613281 C 203.167969 48.738281 202.242188 49.664062 201.113281 49.664062 Z M 201.113281 49.664062 " fill-opacity="1" fill-rule="nonzero"/><path fill="#a1d3a2" d="M 150.5625 110.691406 L 133.8125 110.691406 C 130.96875 110.691406 128.636719 108.359375 128.636719 105.511719 L 128.636719 88.75 C 128.636719 85.902344 130.96875 83.566406 133.8125 83.566406 L 150.5625 83.566406 C 153.40625 83.566406 155.738281 85.902344 155.738281 88.75 L 155.738281 105.511719 C 155.738281 108.359375 153.40625 110.691406 150.5625 110.691406 Z M 150.5625 110.691406 " fill-opacity="1" fill-rule="nonzero"/><path fill="#1f212b" d="M 150.5625 112.953125 L 133.8125 112.953125 C 129.710938 112.953125 126.378906 109.617188 126.378906 105.511719 L 126.378906 88.742188 C 126.378906 84.644531 129.710938 81.304688 133.8125 81.304688 L 150.5625 81.304688 C 154.664062 81.304688 157.996094 84.640625 157.996094 88.742188 L 157.996094 105.511719 C 157.996094 109.609375 154.660156 112.953125 150.5625 112.953125 Z M 133.8125 85.828125 C 132.203125 85.828125 130.894531 87.140625 130.894531 88.75 L 130.894531 105.515625 C 130.894531 107.121094 132.203125 108.433594 133.8125 108.433594 L 150.5625 108.433594 C 152.171875 108.433594 153.480469 107.125 153.480469 105.515625 L 153.480469 88.75 C 153.480469 87.144531 152.171875 85.828125 150.5625 85.828125 Z M 133.8125 85.828125 " fill-opacity="1" fill-rule="nonzero"/><path fill="#78a2d2" d="M 191.214844 110.691406 L 174.464844 110.691406 C 171.621094 110.691406 169.289062 108.359375 169.289062 105.511719 L 169.289062 88.75 C 169.289062 85.902344 171.621094 83.566406 174.464844 83.566406 L 191.214844 83.566406 C 194.0625 83.566406 196.390625 85.902344 196.390625 88.75 L 196.390625 105.511719 C 196.390625 108.359375 194.0625 110.691406 191.214844 110.691406 Z M 191.214844 110.691406 " fill-opacity="1" fill-rule="nonzero"/><path fill="#1f212b" d="M 191.214844 112.953125 L 174.464844 112.953125 C 170.363281 112.953125 167.03125 109.617188 167.03125 105.511719 L 167.03125 88.742188 C 167.03125 84.644531 170.363281 81.304688 174.464844 81.304688 L 191.214844 81.304688 C 195.316406 81.304688 198.652344 84.640625 198.652344 88.742188 L 198.652344 105.511719 C 198.652344 109.609375 195.3125 112.953125 191.214844 112.953125 Z M 174.464844 85.828125 C 172.859375 85.828125 171.546875 87.140625 171.546875 88.75 L 171.546875 105.515625 C 171.546875 107.121094 172.859375 108.433594 174.464844 108.433594 L 191.214844 108.433594 C 192.824219 108.433594 194.132812 107.125 194.132812 105.515625 L 194.132812 88.75 C 194.132812 87.144531 192.824219 85.828125 191.214844 85.828125 Z M 174.464844 85.828125 " fill-opacity="1" fill-rule="nonzero"/><path fill="#fef6aa" d="M 231.867188 110.691406 L 215.121094 110.691406 C 212.273438 110.691406 209.941406 108.359375 209.941406 105.511719 L 209.941406 88.75 C 209.941406 85.902344 212.273438 83.566406 215.121094 83.566406 L 231.867188 83.566406 C 234.714844 83.566406 237.046875 85.902344 237.046875 88.75 L 237.046875 105.511719 C 237.046875 108.359375 234.714844 110.691406 231.867188 110.691406 Z M 231.867188 110.691406 " fill-opacity="1" fill-rule="nonzero"/><path fill="#1f212b" d="M 231.867188 112.953125 L 215.121094 112.953125 C 211.019531 112.953125 207.683594 109.617188 207.683594 105.511719 L 207.683594 88.742188 C 207.683594 84.644531 211.019531 81.304688 215.121094 81.304688 L 231.867188 81.304688 C 235.96875 81.304688 239.304688 84.640625 239.304688 88.742188 L 239.304688 105.511719 C 239.304688 109.609375 235.964844 112.953125 231.867188 112.953125 Z M 215.121094 85.828125 C 213.511719 85.828125 212.203125 87.140625 212.203125 88.75 L 212.203125 105.515625 C 212.203125 107.121094 213.511719 108.433594 215.121094 108.433594 L 231.867188 108.433594 C 233.476562 108.433594 234.785156 107.125 234.785156 105.515625 L 234.785156 88.75 C 234.785156 87.144531 233.476562 85.828125 231.867188 85.828125 Z M 215.121094 85.828125 " fill-opacity="1" fill-rule="nonzero"/><path fill="#f69272" d="M 150.5625 151.375 L 133.8125 151.375 C 130.96875 151.375 128.636719 149.042969 128.636719 146.195312 L 128.636719 129.433594 C 128.636719 126.585938 130.96875 124.253906 133.8125 124.253906 L 150.5625 124.253906 C 153.40625 124.253906 155.738281 126.585938 155.738281 129.433594 L 155.738281 146.195312 C 155.738281 149.042969 153.40625 151.375 150.5625 151.375 Z M 150.5625 151.375 " fill-opacity="1" fill-rule="nonzero"/><path fill="#1f212b" d="M 150.5625 153.636719 L 133.8125 153.636719 C 129.710938 153.636719 126.378906 150.300781 126.378906 146.195312 L 126.378906 129.429688 C 126.378906 125.328125 129.710938 121.988281 133.8125 121.988281 L 150.5625 121.988281 C 154.664062 121.988281 157.996094 125.324219 157.996094 129.429688 L 157.996094 146.195312 C 157.996094 150.296875 154.660156 153.636719 150.5625 153.636719 Z M 133.8125 126.511719 C 132.203125 126.511719 130.894531 127.824219 130.894531 129.433594 L 130.894531 146.199219 C 130.894531 147.804688 132.203125 149.121094 133.8125 149.121094 L 150.5625 149.121094 C 152.171875 149.121094 153.480469 147.808594 153.480469 146.199219 L 153.480469 129.433594 C 153.480469 127.828125 152.171875 126.511719 150.5625 126.511719 Z M 133.8125 126.511719 " fill-opacity="1" fill-rule="nonzero"/><path fill="#f37e98" d="M 191.214844 151.375 L 174.464844 151.375 C 171.621094 151.375 169.289062 149.042969 169.289062 146.195312 L 169.289062 129.433594 C 169.289062 126.585938 171.621094 124.253906 174.464844 124.253906 L 191.214844 124.253906 C 194.0625 124.253906 196.390625 126.585938 196.390625 129.433594 L 196.390625 146.195312 C 196.390625 149.042969 194.0625 151.375 191.214844 151.375 Z M 191.214844 151.375 " fill-opacity="1" fill-rule="nonzero"/><path fill="#1f212b" d="M 191.214844 153.636719 L 174.464844 153.636719 C 170.363281 153.636719 167.03125 150.300781 167.03125 146.195312 L 167.03125 129.429688 C 167.03125 125.328125 170.363281 121.988281 174.464844 121.988281 L 191.214844 121.988281 C 195.316406 121.988281 198.652344 125.324219 198.652344 129.429688 L 198.652344 146.195312 C 198.652344 150.296875 195.3125 153.636719 191.214844 153.636719 Z M 174.464844 126.511719 C 172.859375 126.511719 171.546875 127.824219 171.546875 129.433594 L 171.546875 146.199219 C 171.546875 147.804688 172.859375 149.121094 174.464844 149.121094 L 191.214844 149.121094 C 192.824219 149.121094 194.132812 147.808594 194.132812 146.199219 L 194.132812 129.433594 C 194.132812 127.828125 192.824219 126.511719 191.214844 126.511719 Z M 174.464844 126.511719 " fill-opacity="1" fill-rule="nonzero"/><path fill="#00a7a7" d="M 231.867188 151.375 L 215.121094 151.375 C 212.273438 151.375 209.941406 149.042969 209.941406 146.195312 L 209.941406 129.433594 C 209.941406 126.585938 212.273438 124.253906 215.121094 124.253906 L 231.867188 124.253906 C 234.714844 124.253906 237.046875 126.585938 237.046875 129.433594 L 237.046875 146.195312 C 237.046875 149.042969 234.714844 151.375 231.867188 151.375 Z M 231.867188 151.375 " fill-opacity="1" fill-rule="nonzero"/><path fill="#1f212b" d="M 231.867188 153.636719 L 215.121094 153.636719 C 211.019531 153.636719 207.683594 150.300781 207.683594 146.195312 L 207.683594 129.429688 C 207.683594 125.328125 211.019531 121.988281 215.121094 121.988281 L 231.867188 121.988281 C 235.96875 121.988281 239.304688 125.324219 239.304688 129.429688 L 239.304688 146.195312 C 239.304688 150.296875 235.964844 153.636719 231.867188 153.636719 Z M 215.121094 126.511719 C 213.511719 126.511719 212.203125 127.824219 212.203125 129.433594 L 212.203125 146.199219 C 212.203125 147.804688 213.511719 149.121094 215.121094 149.121094 L 231.867188 149.121094 C 233.476562 149.121094 234.785156 147.808594 234.785156 146.199219 L 234.785156 129.433594 C 234.785156 127.828125 233.476562 126.511719 231.867188 126.511719 Z M 250.597656 81.308594 C 249.351562 81.308594 248.339844 80.296875 248.339844 79.046875 L 248.339844 65.484375 C 248.339844 64.238281 249.351562 63.226562 250.597656 63.226562 C 251.84375 63.226562 252.855469 64.238281 252.855469 65.484375 L 252.855469 79.046875 C 252.855469 80.296875 251.84375 81.308594 250.597656 81.308594 Z M 250.597656 90.347656 C 250.28125 90.347656 250.007812 90.304688 249.738281 90.167969 C 249.46875 90.074219 249.195312 89.890625 249.015625 89.671875 C 248.5625 89.265625 248.339844 88.675781 248.339844 88.089844 C 248.339844 87.5 248.5625 86.914062 249.015625 86.5 C 249.195312 86.277344 249.46875 86.09375 249.738281 86.007812 C 250.550781 85.648438 251.589844 85.875 252.175781 86.5 C 252.628906 86.914062 252.855469 87.5 252.855469 88.089844 C 252.855469 88.675781 252.628906 89.265625 252.175781 89.671875 C 251.765625 90.121094 251.183594 90.347656 250.597656 90.347656 Z M 115.085938 244.046875 C 113.839844 244.046875 112.828125 243.035156 112.828125 241.789062 L 112.828125 232.746094 C 112.828125 231.5 113.839844 230.484375 115.085938 230.484375 C 116.332031 230.484375 117.34375 231.5 117.34375 232.746094 L 117.34375 241.789062 C 117.34375 243.035156 116.332031 244.046875 115.085938 244.046875 Z M 115.085938 244.046875 " fill-opacity="1" fill-rule="nonzero"/></svg>